<?xml version="1.0" encoding="UTF-8"?>
<svg xmlns="http://www.w3.org/2000/svg" xmlns:xlink="http://www.w3.org/1999/xlink" width="2020pt" height="2020pt" viewBox="0 0 2020 2020" version="1.1">
<g id="surface1">
<path style=" stroke:none;fill-rule:nonzero;fill:rgb(0%,0%,0%);fill-opacity:1;" d="M 0 0 L 0 2020 L 2020 2020 L 2020 0 Z M 896.695312 540.136719 C 953.890625 539.546875 1009.832031 545.886719 1037.125 546.671875 C 1138.292969 549.585938 1156.160156 600.753906 1154.867188 642.839844 C 1152.972656 704.476562 1113.316406 965.214844 1186.796875 990.644531 C 1293.875 933.386719 1365.679688 755.550781 1417.96875 642.839844 C 1444.417969 585.828125 1440.238281 582.996094 1501.191406 582.917969 L 1743.335938 582.550781 C 1801.644531 582.476562 1799.371094 580.433594 1818.046875 604.25 C 1861.496094 659.644531 1680.945312 890.070312 1622.632812 953.78125 C 1515.019531 1071.355469 1577.804688 1116.886719 1595.136719 1133.046875 C 1675.449219 1207.925781 1753.050781 1285.574219 1801.28125 1357.1875 C 1839.625 1414.121094 1823.789062 1467.132812 1775.019531 1469.136719 L 1515.367188 1479.863281 C 1429.207031 1483.402344 1295.226562 1328.949219 1273.84375 1295.292969 C 1256.546875 1267.535156 1173.199219 1232.746094 1165.347656 1303.675781 L 1154.371094 1402.679688 C 1146.402344 1473.449219 1094.148438 1471.796875 1052.90625 1473.570312 C 767.296875 1485.863281 670.03125 1377.121094 526.203125 1216.632812 C 420.792969 1067.554688 320.199219 917.625 236.839844 738.015625 C 211.890625 684.253906 198.675781 644.816406 195.292969 603.015625 C 237.234375 570.234375 384.453125 584.351562 483.300781 582.175781 C 510.335938 581.582031 528.578125 597.070312 542.851562 627.917969 C 598.535156 748.296875 659.265625 866.511719 739.621094 971.039062 C 774.617188 1003.269531 805.554688 1015.121094 820.996094 949.585938 C 829.960938 948.761719 829.242188 840.230469 829.75 758.359375 C 830.097656 702.148438 823.492188 634.734375 728.28125 603.628906 C 747.539062 553.144531 823.160156 540.902344 896.695312 540.136719 Z M 896.695312 540.136719 "/>
</g>
</svg>
